<svg xmlns="http://www.w3.org/2000/svg" width="48" height="38" viewBox="0 0 48 38" fill="none">
  <g filter="url(#filter0_d_195_677)">
    <path fill-rule="evenodd" clip-rule="evenodd" d="M42.0651 18H5.96831C4 18 4 16.77 4 15C4 13.23 4 12 5.96831 12H42.0317C44 12 44 13.23 44 15C44 16.77 44 18 42.0317 18H42.0651ZM42.0651 6H5.96831C4 6 4 4.77 4 3C4 1.23 4 0 5.96831 0H42.0317C44 0 44 1.23 44 3C44 4.77 44 6 42.0317 6H42.0651ZM5.96831 24H42.0317C44 24 44 25.23 44 27C44 28.77 44 30 42.0317 30H5.96831C4 30 4 28.77 4 27C4 25.23 4 24 5.96831 24Z" fill="white"/>
  </g>
  <defs>
    <filter id="filter0_d_195_677" x="0" y="0" width="48" height="38" filterUnits="userSpaceOnUse" color-interpolation-filters="sRGB">
      <feFlood flood-opacity="0" result="BackgroundImageFix"/>
      <feColorMatrix in="SourceAlpha" type="matrix" values="0 0 0 0 0 0 0 0 0 0 0 0 0 0 0 0 0 0 127 0" result="hardAlpha"/>
      <feOffset dy="4"/>
      <feGaussianBlur stdDeviation="2"/>
      <feComposite in2="hardAlpha" operator="out"/>
      <feColorMatrix type="matrix" values="0 0 0 0 0 0 0 0 0 0 0 0 0 0 0 0 0 0 0.25 0"/>
      <feBlend mode="normal" in2="BackgroundImageFix" result="effect1_dropShadow_195_677"/>
      <feBlend mode="normal" in="SourceGraphic" in2="effect1_dropShadow_195_677" result="shape"/>
    </filter>
  </defs>
</svg>