<svg xmlns="http://www.w3.org/2000/svg" width="42" height="43" viewBox="0 0 42 43" fill="none">
  <g filter="url(#filter0_d_151_554)">
    <path d="M4.64945 30.2148C3.78352 31.0808 3.78352 32.4846 4.64945 33.3505C5.51539 34.2165 6.91939 34.2165 7.78532 33.3505L4.64945 30.2148ZM22.5679 18.5679C23.4338 17.7019 23.4338 16.2982 22.5679 15.4322C21.7019 14.5662 20.2982 14.5662 19.4322 15.4322L22.5679 18.5679ZM19.4322 15.4322C18.5662 16.2982 18.5662 17.7019 19.4322 18.5679C20.2982 19.4338 21.7019 19.4338 22.5679 18.5679L19.4322 15.4322ZM37.3505 3.78533C38.2165 2.91939 38.2165 1.51539 37.3505 0.649453C36.4846 -0.216484 35.0808 -0.216484 34.2148 0.649453L37.3505 3.78533ZM22.5679 15.4322C21.7019 14.5662 20.2982 14.5662 19.4322 15.4322C18.5662 16.2982 18.5662 17.7019 19.4322 18.5679L22.5679 15.4322ZM34.2148 33.3505C35.0808 34.2165 36.4846 34.2165 37.3505 33.3505C38.2165 32.4846 38.2165 31.0808 37.3505 30.2148L34.2148 33.3505ZM19.4322 18.5679C20.2982 19.4338 21.7019 19.4338 22.5679 18.5679C23.4338 17.7019 23.4338 16.2982 22.5679 15.4322L19.4322 18.5679ZM7.78532 0.649453C6.91939 -0.216484 5.51539 -0.216484 4.64945 0.649453C3.78352 1.51539 3.78352 2.91939 4.64945 3.78533L7.78532 0.649453ZM7.78532 33.3505L22.5679 18.5679L19.4322 15.4322L4.64945 30.2148L7.78532 33.3505ZM22.5679 18.5679L37.3505 3.78533L34.2148 0.649453L19.4322 15.4322L22.5679 18.5679ZM19.4322 18.5679L34.2148 33.3505L37.3505 30.2148L22.5679 15.4322L19.4322 18.5679ZM22.5679 15.4322L7.78532 0.649453L4.64945 3.78533L19.4322 18.5679L22.5679 15.4322Z" fill="white"/>
  </g>
  <defs>
    <filter id="filter0_d_151_554" x="0" y="0" width="42" height="43" filterUnits="userSpaceOnUse" color-interpolation-filters="sRGB">
      <feFlood flood-opacity="0" result="BackgroundImageFix"/>
      <feColorMatrix in="SourceAlpha" type="matrix" values="0 0 0 0 0 0 0 0 0 0 0 0 0 0 0 0 0 0 127 0" result="hardAlpha"/>
      <feOffset dy="5"/>
      <feGaussianBlur stdDeviation="2"/>
      <feComposite in2="hardAlpha" operator="out"/>
      <feColorMatrix type="matrix" values="0 0 0 0 0 0 0 0 0 0 0 0 0 0 0 0 0 0 0.25 0"/>
      <feBlend mode="normal" in2="BackgroundImageFix" result="effect1_dropShadow_151_554"/>
      <feBlend mode="normal" in="SourceGraphic" in2="effect1_dropShadow_151_554" result="shape"/>
    </filter>
  </defs>
</svg>