<svg xmlns="http://www.w3.org/2000/svg" width="201" height="80" viewBox="0 0 201 80" fill="none">
  <path d="M7.94121 0.209286C7.73723 0.366975 7.66923 1.24553 7.71456 3.88119L7.78256 7.35035L11.1823 7.46299C13.0635 7.53057 14.718 7.66573 14.8766 7.75584C15.0806 7.891 15.1486 9.24262 15.1486 13.2074C15.1486 17.1721 15.0806 18.5238 14.8766 18.6589C14.718 18.749 13.0635 18.8842 11.1823 18.9518L7.78256 19.0644V22.6687V26.2731L11.2503 26.3857C13.9927 26.4758 14.7633 26.5659 14.922 26.8362C15.0353 27.0164 15.1486 28.6609 15.1486 30.4856C15.1486 33.1889 15.2166 33.8421 15.5113 34.135C15.7832 34.4278 16.4405 34.4954 19.0016 34.4954C21.5628 34.4954 22.22 34.4278 22.492 34.135C22.8093 33.8196 22.8547 32.3103 22.8547 20.8666C22.8547 8.29649 22.8773 7.91353 23.2853 7.68826C23.5346 7.57562 25.0985 7.46299 26.753 7.46299C28.8155 7.46299 29.8807 7.37288 30.0621 7.19266C30.2434 7.01245 30.334 5.90862 30.334 3.74603C30.334 1.58343 30.2434 0.47961 30.0621 0.299394C29.7448 -0.0159843 8.43984 -0.0835654 7.94121 0.209286Z" fill="white"/>
  <path d="M42.2557 0.389505C41.9384 0.704883 41.8931 2.5521 41.8931 17.3524C41.8931 29.9675 41.9611 34.0224 42.1651 34.2251C42.3464 34.4053 43.457 34.4954 45.6555 34.4954C48.2846 34.4954 48.9419 34.4278 49.2365 34.135C49.5311 33.8421 49.5991 33.1889 49.5991 30.418V27.0615L50.1884 26.8362C50.5057 26.7011 52.1376 26.611 53.7921 26.611C56.5799 26.611 56.8519 26.5659 57.0785 26.1829C57.1918 25.9352 57.3052 24.4484 57.3052 22.894C57.3052 21.3396 57.1918 19.8529 57.0785 19.6051C56.8519 19.2221 56.5572 19.177 53.4975 19.177C51.1857 19.177 50.0524 19.0869 49.8711 18.9067C49.6671 18.704 49.5991 16.3386 49.5991 9.69317C49.5991 1.85376 49.5538 0.682356 49.2365 0.389505C48.9645 0.0966536 48.3072 0.0290726 45.7461 0.0290726C43.185 0.0290726 42.5277 0.0966536 42.2557 0.389505Z" fill="white"/>
  <path d="M65.2831 0.299365C65.0791 0.502108 65.0111 2.079 65.0111 6.04376V11.5178H61.4301C58.937 11.5178 57.7584 11.6079 57.5771 11.7881C57.3958 11.9684 57.3051 13.0947 57.3051 15.3925C57.3051 18.4336 57.3504 18.7265 57.7357 18.9517C57.9851 19.0644 59.5943 19.177 61.3168 19.177C63.4699 19.177 64.5579 19.2671 64.7392 19.4473C64.9432 19.6501 65.0111 21.6099 65.0111 26.8813C65.0111 33.7069 65.0338 34.0449 65.4418 34.2701C66.1217 34.608 71.9239 34.563 72.2186 34.2025C72.3999 33.9998 72.4905 28.6384 72.5132 17.1721C72.5585 2.98008 72.5132 0.412 72.2412 0.231784C71.7426 -0.0835946 65.6004 -0.0160136 65.2831 0.299365Z" fill="white"/>
  <path d="M84.3216 0.299398C84.1403 0.479614 84.0496 1.60597 84.0496 3.90372V7.23772L84.6389 7.46299C84.9562 7.59815 87.3813 7.68826 90.0105 7.68826C93.9995 7.68826 94.9061 7.62068 95.3367 7.32783C95.8127 7.01245 95.8353 6.83224 95.8353 3.94878C95.8353 2.25925 95.722 0.704884 95.6087 0.457087C95.382 0.0516005 95.0647 0.0290735 89.9878 0.0290735C86.0895 0.0290735 84.5256 0.0966545 84.3216 0.299398Z" fill="white"/>
  <path d="M104.267 0.299368C103.949 0.614746 103.881 6.71957 104.176 7.17011C104.312 7.37285 105.876 7.46296 110.227 7.50802L116.12 7.5756L116.188 20.7539C116.234 32.8284 116.256 33.9547 116.619 34.2025C117.095 34.563 122.625 34.608 123.282 34.2701C123.69 34.0449 123.713 33.6394 123.713 20.7539V7.46296L129.674 7.41791L135.612 7.35033L135.68 3.9938C135.725 1.71857 135.657 0.547165 135.476 0.344422C135.113 -0.0835918 104.697 -0.128646 104.267 0.299368Z" fill="white"/>
  <path d="M147.058 0.614758C146.922 0.930137 146.831 2.43945 146.831 3.99381C146.831 7.9811 146.287 7.68825 153.744 7.68825C161.223 7.68825 160.657 8.00362 160.657 3.83612C160.657 2.21418 160.543 0.704866 160.43 0.457069C160.203 0.0515824 159.886 0.0290554 153.721 0.0290554H147.284L147.058 0.614758Z" fill="white"/>
  <path d="M172.216 0.457074C172.08 0.727399 171.989 3.11526 171.989 6.67453C171.989 10.2338 172.08 12.6217 172.216 12.892C172.442 13.275 172.737 13.32 175.797 13.32C178.109 13.32 179.242 13.2299 179.423 13.0497C179.627 12.8469 179.695 11.1124 179.695 6.67453C179.695 2.23671 179.627 0.502128 179.423 0.299385C179.242 0.119169 178.109 0.0290609 175.797 0.0290609C172.737 0.0290609 172.442 0.0741149 172.216 0.457074Z" fill="white"/>
  <path d="M193.521 0.457074C193.385 0.727399 193.294 3.11526 193.294 6.67453C193.294 10.2338 193.385 12.6217 193.521 12.892C193.747 13.275 194.042 13.32 197.102 13.32C199.413 13.32 200.547 13.2299 200.728 13.0497C200.932 12.8469 201 11.1124 201 6.67453C201 2.23671 200.932 0.502128 200.728 0.299385C200.547 0.119169 199.413 0.0290609 197.102 0.0290609C194.042 0.0290609 193.747 0.0741149 193.521 0.457074Z" fill="white"/>
  <path d="M0.0764937 7.95858C0.0084993 8.13879 -0.0141655 10.5942 0.0084993 13.4326L0.0764937 18.6139H3.70286H7.32923V13.2074V7.80089L3.74819 7.73331C0.983086 7.68825 0.144488 7.73331 0.0764937 7.95858Z" fill="white"/>
  <path d="M30.606 7.95858C30.266 8.29649 30.2207 17.6452 30.5607 18.2985C30.7873 18.6814 31.0819 18.7265 34.1417 18.7265C36.4535 18.7265 37.5867 18.6364 37.7681 18.4562C38.1534 18.0732 38.1534 8.34154 37.7681 7.95858C37.3828 7.57562 30.9913 7.57562 30.606 7.95858Z" fill="white"/>
  <path d="M76.5929 8.00362C76.4116 8.20636 76.3436 9.35524 76.3889 11.653L76.4569 15.0095H80.0833H83.7097V11.4052V7.80087L80.2873 7.73329C77.5675 7.68824 76.7969 7.73329 76.5929 8.00362Z" fill="white"/>
  <path d="M96.1073 7.95858C95.926 8.1388 95.8353 9.12998 95.8353 10.8871V13.5453H91.8916C88.5146 13.5453 87.9253 13.5903 87.812 13.9057C87.54 14.6041 87.6533 20.416 87.9479 20.7089C88.1293 20.8891 89.3758 20.9792 92.0276 20.9792H95.8353V23.5473C95.8353 25.5972 95.9033 26.2055 96.1979 26.4758C96.4699 26.7686 97.1272 26.8362 99.6883 26.8362C102.249 26.8362 102.907 26.7686 103.179 26.4758C103.473 26.2055 103.541 25.5522 103.541 23.0066C103.541 19.1545 103.564 19.177 101.026 19.177H99.235V17.1496V15.1222H101.116C102.272 15.1222 103.111 15.0095 103.269 14.8518C103.609 14.5139 103.655 8.74703 103.315 8.11627C103.088 7.73331 102.793 7.68826 99.7336 7.68826C97.4218 7.68826 96.2886 7.77836 96.1073 7.95858Z" fill="white"/>
  <path d="M139.51 7.84594C139.42 7.91352 139.352 12.1261 139.352 17.1721C139.352 26.0253 139.374 26.3857 139.782 26.611C140.032 26.7236 141.528 26.8362 143.091 26.8362C144.655 26.8362 146.151 26.7236 146.401 26.611C146.786 26.3857 146.831 26.1154 146.831 23.6824V20.9792H157.234C166.391 20.9792 167.683 20.9341 168 20.6188C168.317 20.3259 168.363 19.4474 168.363 14.4238C168.363 10.8195 168.272 8.38659 168.136 8.11627C167.909 7.73331 167.615 7.68825 164.555 7.68825C162.243 7.68825 161.11 7.77836 160.929 7.95858C160.747 8.13879 160.657 9.0624 160.657 10.6168C160.657 12.1711 160.566 13.0947 160.385 13.275C160.181 13.4777 158.345 13.5453 153.472 13.5453H146.831V10.8871C146.831 9.12998 146.74 8.13879 146.559 7.95858C146.265 7.66573 139.782 7.55309 139.51 7.84594Z" fill="white"/>
  <path d="M179.922 13.9733C179.808 14.2211 179.695 15.7079 179.695 17.2622C179.695 18.8166 179.808 20.3034 179.922 20.5512C180.148 20.9567 180.466 20.9792 186.449 20.9792C191.05 20.9792 192.818 20.9116 193.022 20.7089C193.203 20.5287 193.294 19.4248 193.294 17.2622C193.294 15.0996 193.203 13.9958 193.022 13.8156C192.818 13.6129 191.05 13.5453 186.449 13.5453C180.466 13.5453 180.148 13.5678 179.922 13.9733Z" fill="white"/>
  <path d="M128.291 14.7167C127.951 15.0546 127.906 21.0468 128.246 21.6775C128.473 22.0605 128.767 22.1055 131.827 22.1055C134.139 22.1055 135.272 22.0154 135.453 21.8352C135.635 21.655 135.725 20.5061 135.725 18.1408C135.725 15.2348 135.68 14.6942 135.363 14.5815C134.66 14.3112 128.586 14.4238 128.291 14.7167Z" fill="white"/>
  <path d="M172.216 21.6325C172.08 21.9028 171.989 24.2907 171.989 27.7824C171.989 32.5806 172.034 33.5718 172.352 33.9998C172.669 34.4729 172.85 34.4954 175.751 34.4954C177.451 34.4954 179.015 34.3828 179.264 34.2702C179.672 34.0449 179.695 33.7295 179.695 27.9626C179.695 24.6511 179.627 21.7677 179.559 21.5649C179.446 21.2495 178.902 21.2045 175.933 21.2045C172.737 21.2045 172.442 21.2495 172.216 21.6325Z" fill="white"/>
  <path d="M193.566 21.4748C193.362 21.6776 193.294 23.3896 193.294 27.7599C193.294 32.9411 193.339 33.8421 193.657 34.135C194.178 34.6531 200.116 34.6531 200.637 34.135C200.955 33.8421 201 32.9411 201 27.7599C201 23.3896 200.932 21.6776 200.728 21.4748C200.343 21.0919 193.951 21.0919 193.566 21.4748Z" fill="white"/>
  <path d="M84.3216 27.1066C84.1403 27.2868 84.0496 28.4131 84.0496 30.7109C84.0496 33.752 84.095 34.0449 84.4803 34.2702C84.7522 34.4053 86.9507 34.4954 90.0331 34.4954C94.3621 34.4954 95.178 34.4504 95.4727 34.135C95.994 33.6169 95.994 27.7148 95.4727 27.1967C95.178 26.8813 94.3394 26.8362 89.8518 26.8362C86.0668 26.8362 84.5256 26.9038 84.3216 27.1066Z" fill="white"/>
  <path d="M147.284 27.0615C146.763 27.3769 146.65 33.1663 147.148 33.9548L147.511 34.4954H155.58C160.702 34.4954 163.784 34.4053 164.079 34.2702C164.464 34.0449 164.51 33.752 164.51 30.7109C164.51 28.4131 164.419 27.2868 164.238 27.1066C163.898 26.7687 147.806 26.7236 147.284 27.0615Z" fill="white"/>
  <path d="M34.799 61.0322C34.459 61.3927 34.4137 62.2262 34.4137 68.1958C34.4137 75.6523 34.459 75.9451 35.7509 75.9451C36.7935 75.9451 36.9975 75.4495 37.1334 72.8364C37.2468 70.5387 37.2694 70.4711 37.9267 69.9529L38.6067 69.4348L42.3463 72.6787C46.2674 76.0803 46.8566 76.3957 47.6272 75.5397C48.1485 74.9539 48.1032 74.2106 47.5139 73.6249C47.2193 73.3545 45.5874 71.9128 43.8649 70.4485C42.1424 68.9618 40.7825 67.7002 40.8051 67.6101C40.8505 67.52 42.1424 66.3486 43.7062 64.997C46.6753 62.4064 47.0833 61.7756 46.3127 60.9872C45.4741 60.1762 44.8848 60.4916 40.9865 63.8707L37.2468 67.1145L37.1334 64.2311C37.0654 62.2712 36.9295 61.2575 36.7028 60.9872C36.2948 60.5141 35.2523 60.5367 34.799 61.0322Z" fill="white"/>
  <path d="M57.4185 60.9872C56.1719 61.663 54.812 62.902 54.3587 63.7805C53.9734 64.5465 53.9054 65.1322 53.9054 68.2859C53.9054 72.476 54.0641 72.9941 55.8093 74.4358C57.3731 75.7199 58.0984 75.9451 60.7049 75.9451C63.4473 75.9451 64.1273 75.6973 65.7818 74.143C67.391 72.6337 67.5723 71.9579 67.459 67.6777C67.391 64.4789 67.3683 64.2536 66.8017 63.4201C66.4617 62.9245 65.6231 62.1135 64.8979 61.6405L63.606 60.7394L60.8409 60.6718C58.665 60.6268 57.9624 60.6943 57.4185 60.9872ZM62.586 63.3075C62.8807 63.4201 63.4926 63.8707 63.9459 64.2987L64.7845 65.0646V68.3535V71.6425L63.7873 72.4309C62.8127 73.2419 62.79 73.2419 60.6142 73.2419H58.4384L57.5318 72.4309L56.6252 71.6199V68.3085V64.997L57.2598 64.4113C57.5998 64.0734 58.1891 63.6454 58.5517 63.4652C59.2996 63.0597 61.7021 62.9921 62.586 63.3075Z" fill="white"/>
  <path d="M79.3807 61.0548C78.6327 61.5053 75.165 65.808 74.4851 67.1371C74.1451 67.8129 74.0771 68.5112 74.0771 71.5749C74.0771 75.5847 74.1904 75.9451 75.4143 75.9451C76.4796 75.9451 76.5702 75.6523 76.5702 72.1381C76.5929 70.0656 76.6836 68.6239 76.8649 68.2409C77.0235 67.9255 77.8621 66.7316 78.7234 65.6052C80.4913 63.3525 81.0579 63.0146 83.0297 63.1498L84.163 63.2174L84.231 69.2771C84.2536 73.2869 84.3669 75.4495 84.5256 75.6523C84.8656 76.0578 85.9761 76.0127 86.4068 75.5847C86.7241 75.2919 86.7694 74.3007 86.7694 68.2859C86.7694 62.2712 86.7241 61.28 86.4068 60.9872C86.1348 60.6943 85.4775 60.6268 83.075 60.6268C80.5366 60.6268 79.97 60.6943 79.3807 61.0548Z" fill="white"/>
  <path d="M99.6884 60.807C98.9178 61.1449 98.3285 61.7531 96.5833 64.0058C93.8862 67.4975 93.9315 67.3849 93.8408 71.3271C93.7728 75.2017 93.9315 75.7874 95.0647 75.9001C96.3793 76.0352 96.5153 75.6298 96.5153 71.9353C96.5153 68.8942 96.5606 68.5563 97.0366 67.8129C98.1018 66.1008 100.414 63.3751 100.89 63.2399C101.162 63.1723 101.978 63.1047 102.703 63.1047H103.995V69.0293C103.995 75.5622 104.063 75.9451 105.332 75.9451C106.692 75.9451 106.714 75.81 106.714 68.2409C106.714 61.8657 106.692 61.3476 106.306 61.0097C105.967 60.6943 105.377 60.6268 102.952 60.6493C101.343 60.6493 99.8697 60.7169 99.6884 60.807Z" fill="white"/>
  <path d="M117.004 61.0773C115.599 61.7756 114.126 63.3075 113.786 64.3662C113.627 64.9069 113.514 66.5964 113.514 68.4211C113.514 72.093 113.763 72.8139 115.418 74.3232C117.095 75.855 117.458 75.9451 122.217 75.9451C126.886 75.9451 127.203 75.855 127.067 74.5034C126.954 73.3996 126.387 73.2419 122.013 73.2419H118.16L117.186 72.3633C116.392 71.6425 116.211 71.3271 116.279 70.8315L116.347 70.2007L121.311 70.1332C127.407 70.0656 127.113 70.2233 127.113 67.2722C127.113 64.3212 126.977 63.8481 125.753 62.6317C124.03 60.9196 123.237 60.6268 120.381 60.6268C118.387 60.6268 117.775 60.7169 117.004 61.0773ZM122.194 63.3075C122.512 63.4201 123.124 63.8481 123.577 64.2311C124.348 64.9069 124.393 65.0421 124.393 66.281V67.6101H120.313H116.234V66.3486C116.234 65.1772 116.302 65.0195 117.095 64.2987C117.548 63.8707 118.137 63.4201 118.387 63.33C118.999 63.0597 121.515 63.0597 122.194 63.3075Z" fill="white"/>
  <path d="M139.669 61.0548C138.921 61.5053 135.453 65.8305 134.773 67.1596C134.456 67.7678 134.366 68.4887 134.366 70.5837C134.366 73.1968 134.366 73.2419 133.844 73.2419C133.572 73.2419 133.096 73.3996 132.824 73.6023C132.348 73.9177 132.326 74.0979 132.326 76.7336C132.326 79.2791 132.371 79.5495 132.756 79.7747C133.391 80.0901 134.048 80.0451 134.456 79.6396C134.728 79.3918 134.819 78.8286 134.819 77.6121V75.9451H140.145H145.471V77.5896C145.471 79.4368 145.811 80 146.899 80C147.919 80 148.191 79.3017 148.191 76.666C148.191 75.382 148.078 74.143 147.964 73.8952C147.806 73.6474 147.375 73.4221 146.831 73.332L145.925 73.1743V67.3623C145.925 60.1987 146.129 60.6268 142.706 60.6268C140.825 60.6268 140.236 60.7169 139.669 61.0548ZM143.159 68.2184L143.205 73.2419H140.145H137.085V70.7864C137.085 68.0381 137.04 68.1508 139.488 65.0871C140.848 63.4201 141.324 63.1047 142.412 63.1723L143.091 63.2174L143.159 68.2184Z" fill="white"/>
  <path d="M151.409 60.8971C150.752 61.5504 151.115 62.474 153.064 65.0646L155.013 67.6101L152.724 70.9216C151.477 72.7463 150.457 74.4358 150.457 74.7062C150.457 75.3144 151.137 75.9451 151.772 75.9451C152.452 75.9451 152.769 75.5847 154.99 72.2732C156.872 69.4799 156.94 69.4348 157.778 69.4123H158.617V72.048C158.617 75.1116 158.843 75.81 159.863 75.9001C161.11 75.9902 161.223 75.7874 161.337 72.521L161.45 69.5249L162.289 69.4574L163.127 69.3898L165.235 72.476C166.391 74.188 167.501 75.6748 167.705 75.7874C168.272 76.1254 169.269 75.7649 169.496 75.1342C169.768 74.4358 169.745 74.3682 167.184 70.6963C166.096 69.0969 165.19 67.7228 165.19 67.6327C165.19 67.5426 166.051 66.3036 167.116 64.9069C168.204 63.4652 169.043 62.1361 169.043 61.8432C169.043 60.6718 167.547 60.2213 166.753 61.1224C166.504 61.4152 165.484 62.8119 164.442 64.2311C162.946 66.3261 162.447 66.8442 161.949 66.8893L161.337 66.9569V64.141C161.337 61.0322 161.178 60.6268 159.977 60.6268C158.843 60.6268 158.617 61.2575 158.617 64.2761C158.617 66.9118 158.617 66.9343 158.096 66.9343C157.665 66.9343 157.166 66.3712 155.67 64.2761C154.628 62.8344 153.585 61.4152 153.336 61.1224C152.837 60.5817 151.84 60.4691 151.409 60.8971Z" fill="white"/>
</svg>