<svg width="528" height="47" viewBox="0 0 528 47" fill="none" xmlns="http://www.w3.org/2000/svg">
<path d="M268.556 0.483414C268.333 0.655353 268.166 1.68699 268.166 2.77593C268.166 3.9795 267.888 4.66726 267.387 4.66726C266.162 4.66726 262.601 9.08035 262.601 10.6851C262.601 12.2326 265.439 15.9006 267.053 16.4164C267.776 16.6457 268.166 17.3907 268.277 18.8809C268.5 21.7465 270.058 21.8038 270.281 18.9955C270.448 17.3907 270.782 16.8176 272.229 16.1298C274.622 14.9836 276.681 11.7167 276.236 9.82542C275.791 7.99141 272.674 4.66726 271.394 4.66726C270.615 4.66726 270.392 4.20875 270.392 2.37474C270.392 0.19685 269.613 -0.605531 268.556 0.483414ZM267.888 14.3531C267.387 14.869 264.827 11.6594 264.827 10.5132C264.827 9.99736 265.495 8.8511 266.385 7.93409L267.888 6.32933L268.055 10.112C268.166 12.2326 268.055 14.1239 267.888 14.3531ZM273.119 8.44991C273.787 9.3096 274.288 10.2266 274.288 10.5705C274.288 11.3156 271.505 14.4105 270.837 14.4105C270.615 14.4105 270.392 12.7484 270.392 10.6851C270.392 6.50127 271.171 5.87083 273.119 8.44991Z" fill="white"/>
<path d="M519.725 0.941795C519.725 1.34299 520.337 1.97343 521.116 2.37462C522.786 3.29163 525.458 2.60387 525.736 1.17105C525.847 0.483292 525.235 0.311353 522.786 0.311353C520.894 0.311353 519.725 0.597918 519.725 0.941795Z" fill="white"/>
<path d="M9.20451 2.1454C8.9819 2.37465 8.81493 4.43792 8.81493 6.73043V10.9143L13.156 11.0862L17.4414 11.2582V17.8491V24.4401L13.2673 24.7267L9.09321 25.0133L8.92624 29.4264L8.75928 33.8394L13.1003 34.0114L17.4414 34.1833L17.7197 38.7684L17.998 43.3534H22.1721H26.3462L26.6244 27.3058L26.9027 11.2582L31.0768 10.9716L35.2509 10.685V6.38656V2.08809L22.3947 1.91615C15.3265 1.85884 9.42713 1.97346 9.20451 2.1454Z" fill="white"/>
<path d="M49.1649 2.48928C48.9979 2.89047 48.9423 12.2898 48.9979 23.2939L49.1649 43.3534H53.339H57.5131L57.7914 39.0549L58.0696 34.7565L62.2437 34.4699L66.4178 34.1833L66.5848 29.7129L66.7518 25.2998H62.9673C60.908 25.2998 58.8488 25.0706 58.5149 24.8413C58.014 24.4974 57.7914 21.2879 57.6801 13.2641L57.5131 2.08809L53.4503 1.91615C50.5563 1.80152 49.3318 1.97346 49.1649 2.48928Z" fill="white"/>
<path d="M75.9906 2.14527C75.768 2.37453 75.601 5.46942 75.601 9.08014V15.5565H72.0391C66.6963 15.5565 66.6963 15.5565 66.6963 20.4281C66.6963 25.2997 66.6963 25.2997 72.0391 25.2997H75.5454L75.7124 34.2978L75.8793 43.3533L80.1647 43.5252L84.3945 43.6971L84.6171 25.1851C84.6728 14.9834 84.6728 5.64136 84.5058 4.38048L84.2275 2.08796L80.3317 1.91602C78.1612 1.85871 76.2132 1.91602 75.9906 2.14527Z" fill="white"/>
<path d="M98.1411 3.11975C97.9185 3.86482 97.8628 5.87077 97.9741 7.59016L98.1411 10.6851L104.987 10.857L111.832 11.0289L111.665 6.55852L111.498 2.08811L104.987 1.91618C98.5307 1.74424 98.4193 1.80155 98.1411 3.11975Z" fill="white"/>
<path d="M121.46 2.54659C121.293 3.00509 121.238 5.01104 121.349 7.017L121.516 10.685L128.473 10.9716L135.43 11.2582L135.708 27.3058L135.986 43.3534H140.16H144.334L144.501 27.1911L144.613 11.0289L151.458 10.857L158.248 10.685V6.38655V2.08809L139.993 1.91615C124.966 1.80152 121.739 1.91615 121.46 2.54659Z" fill="white"/>
<path d="M171.55 2.54662C171.383 3.00513 171.327 5.01108 171.438 7.01703L171.605 10.6851H179.397H187.189V6.38659V2.08812L179.508 1.91618C173.386 1.80156 171.828 1.91618 171.55 2.54662Z" fill="white"/>
<path d="M201.214 2.14538C200.991 2.37463 200.824 5.98535 200.824 10.2265V17.8491H205.277H209.785L209.618 9.93994L209.451 2.08807L205.555 1.91613C203.384 1.85882 201.436 1.91613 201.214 2.14538Z" fill="white"/>
<path d="M226.258 2.14544C226.036 2.37469 225.869 6.04272 225.869 10.2266V17.9065L230.21 17.7346L234.495 17.5626V9.82537V2.08813L230.599 1.91619C228.429 1.85888 226.481 1.91619 226.258 2.14544Z" fill="white"/>
<path d="M279.408 10.513C279.52 15.3273 279.742 16.4163 280.41 16.4163C280.855 16.4163 281.301 15.8431 281.412 15.1554C281.579 14.1237 286.365 9.82527 287.367 9.82527C287.478 9.82527 287.645 11.3154 287.757 13.0921C287.868 15.6139 288.146 16.4163 288.758 16.4163C289.426 16.4163 289.649 15.3273 289.76 10.513C289.871 5.5268 289.76 4.66711 289.037 4.66711C288.591 4.66711 287.924 5.29755 287.701 5.98531C287.423 6.73038 285.92 8.27782 284.362 9.42408L281.579 11.4873L281.412 8.22051C281.301 5.64143 281.022 4.95367 280.243 4.78174C279.353 4.6098 279.297 5.0683 279.408 10.513Z" fill="white"/>
<path d="M294.881 5.52698C293.823 6.84518 294.936 7.8195 296.495 6.95981C297.163 6.61593 298.777 6.38668 300.057 6.5013C301.949 6.61593 302.45 6.90249 302.561 7.93413C302.728 9.02307 302.45 9.19501 300.335 9.36695C297.107 9.5962 296.996 11.1436 300.168 11.5448C302.005 11.7741 302.45 12.0607 302.561 13.2069C302.784 14.5824 302.728 14.5824 298.554 14.2959C295.27 14.0666 294.324 14.1812 294.324 14.7544C294.324 16.0152 296.272 16.703 299.778 16.703C302.227 16.703 303.285 16.4164 303.952 15.6714C304.954 14.5251 305.233 11.8314 304.398 11.3156C304.119 11.0863 304.119 10.284 304.509 9.30964C304.954 8.04875 304.954 7.24637 304.453 6.15743C303.841 4.7246 303.563 4.66729 299.667 4.66729C296.662 4.66729 295.382 4.89654 294.881 5.52698Z" fill="white"/>
<path d="M309.573 5.41236C309.406 5.87086 309.35 8.50726 309.462 11.3156C309.573 15.3275 309.796 16.4164 310.464 16.4164C310.909 16.4164 311.41 15.8433 311.577 15.1556C311.799 14.0093 316.752 9.82545 317.81 9.82545C318.088 9.82545 318.255 11.3729 318.255 13.2642C318.255 15.9579 318.422 16.703 319.09 16.703C319.758 16.703 319.925 15.6714 319.925 10.6851C319.925 5.92817 319.758 4.66729 319.146 4.66729C318.7 4.66729 318.2 5.24042 318.033 5.92817C317.866 6.67324 316.307 8.22069 314.638 9.42426L311.577 11.6022V8.10606C311.577 5.41236 311.41 4.66729 310.742 4.66729C310.241 4.66729 309.74 5.01117 309.573 5.41236Z" fill="white"/>
<path d="M325.046 10.513C325.157 15.3273 325.379 16.4162 326.047 16.4162C326.604 16.4162 326.938 15.7285 327.049 14.4103C327.16 13.3214 327.439 12.1751 327.661 11.9458C327.94 11.6593 329.442 12.6336 331.001 14.0664C334.006 16.8174 334.618 17.104 335.286 16.0724C335.509 15.6712 334.451 14.2957 332.726 12.7482L329.776 10.0545L332.058 8.04856C333.338 6.9023 334.396 5.69873 334.396 5.35486C334.396 4.03666 332.559 4.72441 330.054 7.01693L327.439 9.36676L327.272 7.01693C327.105 5.1256 326.882 4.6671 325.992 4.6671C324.934 4.6671 324.879 5.01098 325.046 10.513Z" fill="white"/>
<path d="M341.185 5.81355C340.183 6.78787 339.96 7.64756 339.96 10.6851C339.96 13.952 340.127 14.4678 341.407 15.4994C342.298 16.2445 343.689 16.703 344.969 16.703C346.249 16.703 347.641 16.2445 348.531 15.4994C349.811 14.4678 349.978 13.952 349.978 10.6851C349.978 6.0428 348.865 4.66729 344.969 4.66729C343.133 4.66729 342.02 5.01117 341.185 5.81355ZM347.084 7.30368C348.03 7.93413 348.309 8.73651 348.309 10.6278C348.309 13.5508 347.585 14.4105 344.969 14.4105C342.354 14.4105 341.63 13.5508 341.63 10.6278C341.63 8.10606 342.966 6.38668 344.969 6.38668C345.47 6.38668 346.416 6.78787 347.084 7.30368Z" fill="white"/>
<path d="M366.675 5.52681C366.675 6.09993 367.232 6.3865 368.623 6.3865H370.515L370.682 11.3727C370.794 15.3846 371.016 16.4163 371.684 16.4163C372.352 16.4163 372.575 15.3846 372.686 11.43L372.853 6.44381L374.801 6.27187C375.858 6.15725 376.749 5.81337 376.86 5.52681C376.916 5.18293 374.912 4.89636 371.851 4.78174C367.51 4.66711 366.675 4.78174 366.675 5.52681Z" fill="white"/>
<path d="M382.926 5.98543C381.09 7.99138 381.201 13.3788 383.093 15.3274C384.318 16.5883 384.874 16.7603 388.269 16.5883C391.163 16.4737 391.998 16.2444 391.998 15.5567C391.998 14.9262 391.163 14.6397 388.659 14.5251C385.542 14.3531 383.928 13.7227 383.928 12.6337C383.928 12.4045 385.765 12.1179 387.991 12.0033L391.998 11.8313L391.942 9.30958C391.887 5.98543 390.384 4.66723 386.766 4.66723C384.707 4.66723 383.872 4.95379 382.926 5.98543ZM389.048 7.36094C390.885 9.08032 390.328 9.82539 386.989 9.82539C384.318 9.82539 383.928 9.65345 383.928 8.67913C383.928 6.55856 387.212 5.64155 389.048 7.36094Z" fill="white"/>
<path d="M397.007 5.24032C396.84 5.52688 397.619 6.78777 398.732 8.04865L400.736 10.3985L398.732 12.8056C397.619 14.1238 396.784 15.442 396.896 15.7859C397.285 17.0468 398.343 16.6456 400.068 14.4104L401.849 12.1179L403.964 14.525C405.633 16.4736 406.246 16.8175 406.802 16.3017C407.359 15.7286 407.025 15.0408 405.411 12.9776L403.352 10.3985L405.021 8.2779C405.967 7.07433 406.747 5.81345 406.747 5.41226C406.747 3.97943 405.188 4.66719 403.574 6.78777L401.905 8.85103L400.346 6.78777C398.844 4.66719 397.675 4.15137 397.007 5.24032Z" fill="white"/>
<path d="M411.978 5.41218C411.811 5.87068 411.756 8.50708 411.867 11.3154C411.978 15.3846 412.201 16.4163 412.869 16.4163C413.425 16.4163 413.759 15.6712 413.871 13.9518L414.038 11.5447H417.043H420.048L420.215 13.9518C420.327 15.6712 420.66 16.4163 421.217 16.4163C421.885 16.4163 422.052 15.3846 422.052 10.685C422.052 5.69874 421.94 4.95367 421.106 4.78174C420.271 4.6098 420.104 5.01099 420.104 6.90231V9.25214H417.043H413.982V6.95963C413.982 5.29755 413.759 4.66711 413.147 4.66711C412.646 4.66711 412.145 5.01099 411.978 5.41218Z" fill="white"/>
<path d="M426.894 10.5132C427.005 15.2129 427.228 16.4164 427.895 16.4164C428.341 16.4164 428.842 15.8433 429.009 15.0982C429.176 14.4105 430.567 12.9204 432.07 11.7741L434.852 9.76814L435.019 11.946C435.242 15.4421 435.631 16.703 436.522 16.703C437.19 16.703 437.357 15.6141 437.357 10.6278C437.357 5.18311 437.245 4.60998 436.411 4.78192C435.854 4.89654 435.353 5.46967 435.242 6.10011C435.131 6.73055 433.684 8.22069 432.014 9.42426L429.009 11.6022V8.10606C429.009 5.01117 428.897 4.66729 427.895 4.66729C426.782 4.66729 426.727 4.95385 426.894 10.5132Z" fill="white"/>
<path d="M442.365 7.76201C442.365 11.5447 443.367 12.9202 445.927 12.519C446.873 12.4044 448.098 12.1178 448.599 11.8885C449.378 11.5447 449.545 11.8312 449.712 13.9518C449.823 15.6712 450.101 16.4163 450.713 16.4163C451.381 16.4163 451.548 15.3846 451.548 10.685C451.548 5.69874 451.437 4.95367 450.602 4.78174C449.767 4.6098 449.6 5.01099 449.6 6.845C449.6 8.67901 449.378 9.19483 448.209 9.71065C445.371 11.0288 444.647 10.685 444.48 7.70469C444.369 5.64143 444.091 4.89636 443.367 4.78174C442.532 4.6098 442.365 5.0683 442.365 7.76201Z" fill="white"/>
<path d="M458.616 5.98549C457.615 7.07443 457.392 7.99144 457.392 10.7998C457.392 15.4994 458.728 16.703 463.904 16.703C467.02 16.703 467.466 16.5884 467.299 15.6714C467.132 14.869 466.408 14.6397 463.625 14.5251C460.898 14.4105 460.064 14.1239 459.618 13.2642C459.062 12.1753 459.229 12.118 463.236 12.118H467.41V9.53889C467.41 6.10011 465.907 4.66729 462.401 4.66729C460.397 4.66729 459.507 4.95385 458.616 5.98549ZM464.516 7.30368C466.798 8.96576 466.074 9.82545 462.401 9.82545C458.839 9.82545 458.394 9.36695 460.175 7.53294C461.511 6.15743 462.846 6.10011 464.516 7.30368Z" fill="white"/>
<path d="M474.256 6.32936C472.697 7.76219 472.419 8.44994 472.419 10.5705C472.419 12.8057 472.697 13.3789 474.367 14.9263C476.092 16.4738 476.76 16.703 479.376 16.703C482.047 16.703 482.437 16.5884 482.437 15.5567C482.437 14.5251 482.047 14.4105 479.487 14.4105C476.037 14.4105 474.645 13.3215 474.645 10.5705C474.645 8.22069 476.37 6.73055 479.71 6.38668C483.606 5.98549 483.383 5.01117 479.376 4.78191C476.315 4.66729 475.87 4.78191 474.256 6.32936Z" fill="white"/>
<path d="M488.002 10.6851C488.002 15.6714 488.169 16.703 488.837 16.703C489.394 16.703 489.672 16.1299 489.672 14.8117C489.672 11.4875 490.618 11.3156 493.846 14.1812C495.46 15.5567 497.019 16.703 497.408 16.703C498.799 16.703 497.853 14.9263 495.238 12.5765L492.455 10.0547L494.681 8.16338C496.907 6.32936 497.575 4.66729 496.128 4.66729C495.738 4.66729 494.236 5.69892 492.844 6.95981C491.453 8.22069 490.173 9.25232 490.006 9.25232C489.839 9.25232 489.672 8.22069 489.672 6.95981C489.672 5.29773 489.449 4.66729 488.837 4.66729C488.169 4.66729 488.002 5.69892 488.002 10.6851Z" fill="white"/>
<path d="M502.584 10.513C502.695 15.2127 502.918 16.4163 503.586 16.4163C504.031 16.4163 504.532 15.8431 504.699 15.1554C504.922 14.1237 509.597 9.82527 510.487 9.82527C510.654 9.82527 510.821 11.3154 510.932 13.0921C511.044 15.6139 511.322 16.4163 511.934 16.4163C512.602 16.4163 512.825 15.3273 512.936 10.513C513.047 5.5268 512.936 4.66711 512.212 4.66711C511.767 4.66711 511.099 5.29755 510.877 5.98531C510.598 6.73038 509.096 8.27782 507.537 9.42408L504.755 11.4873L504.588 8.22051C504.476 5.64143 504.198 4.95367 503.419 4.78174C502.529 4.6098 502.473 5.0683 502.584 10.513Z" fill="white"/>
<path d="M517.611 10.513C517.722 15.2127 517.945 16.4163 518.613 16.4163C519.058 16.4163 519.559 15.8431 519.726 15.0981C519.893 14.4103 521.284 12.9202 522.787 11.7739L525.57 9.76796L525.848 13.0921C526.071 15.5566 526.349 16.4163 526.961 16.4163C527.629 16.4163 527.851 15.3273 527.963 10.513C528.074 5.64143 527.963 4.66711 527.295 4.66711C526.85 4.66711 526.126 5.35487 525.737 6.15725C525.347 6.95963 523.844 8.56439 522.397 9.65333L519.726 11.6593V8.1632C519.726 5.01099 519.615 4.66711 518.613 4.66711C517.5 4.66711 517.444 4.95367 517.611 10.513Z" fill="white"/>
<path d="M355.655 10.7997C355.822 11.6594 356.379 11.8313 358.883 11.8313C361.221 11.8313 361.944 11.6594 361.944 10.9716C361.944 10.3412 361.165 10.0546 358.716 9.93997C355.822 9.76803 355.488 9.88266 355.655 10.7997Z" fill="white"/>
<path d="M0.133143 11.7167C0.0218336 12.1179 -0.0338211 15.1555 0.0218336 18.4796L0.188798 24.4402H4.3629H8.537V17.8492V11.2582L4.47421 11.0863C1.46886 10.9716 0.355762 11.1436 0.133143 11.7167Z" fill="white"/>
<path d="M35.7518 11.7167C35.6405 12.1179 35.5848 15.1555 35.6405 18.4796L35.8075 24.4402H39.9816H44.1557V17.8492V11.2582L40.0929 11.0863C37.0875 10.9716 35.9744 11.1436 35.7518 11.7167Z" fill="white"/>
<path d="M89.6261 11.4301C89.1252 11.774 88.9583 13.0922 89.0696 15.9005L89.2365 19.8551L93.5776 20.027L97.9187 20.199L97.7517 15.7286L97.5848 11.2582L93.9672 11.0862C91.9636 11.0289 90.0157 11.2008 89.6261 11.4301Z" fill="white"/>
<path d="M112.5 11.3154C112.055 11.5446 111.776 12.8055 111.776 14.7541V17.849H107.936C102.315 17.849 102.315 17.849 102.315 22.7206C102.315 27.5922 102.315 27.5922 107.88 27.5922H111.721L111.888 30.8591L112.055 34.1832H116.229H120.403L120.57 29.7128L120.737 25.2997H118.177H115.616L115.783 22.8353C115.95 20.4281 115.95 20.4281 118.343 20.2562L120.737 20.0843L120.57 15.6712L120.403 11.2581L116.785 11.1434C114.782 11.0861 112.834 11.2007 112.5 11.3154Z" fill="white"/>
<path d="M162.701 11.6593C162.534 12.1178 162.478 17.3332 162.534 23.2938L162.701 34.1832H166.875H171.049L171.216 30.8591L171.383 27.5922H183.181C189.693 27.5922 195.314 27.363 195.704 27.1337C196.205 26.7325 196.372 24.7266 196.26 18.938L196.093 11.2581L193.088 11.0861C187.968 10.7996 187.523 11.0288 187.356 14.8688L187.189 18.1356L179.286 18.3076L171.383 18.4795L171.216 14.8688L171.049 11.2581L166.986 11.0861C164.036 10.9715 162.867 11.1434 162.701 11.6593Z" fill="white"/>
<path d="M210.118 18.7662C209.895 18.9955 209.729 20.9441 209.729 23.0647C209.729 26.045 209.951 26.962 210.619 27.2485C211.12 27.4205 214.459 27.5924 218.077 27.5924C223.03 27.5924 224.755 27.4205 225.256 26.79C225.646 26.2742 225.868 24.4975 225.757 22.3196L225.59 18.7089L218.021 18.537C213.903 18.4797 210.341 18.5943 210.118 18.7662Z" fill="white"/>
<path d="M149.733 23.9816L149.9 28.452H154.074H158.249L158.416 23.9816L158.582 19.5685H154.074H149.566L149.733 23.9816Z" fill="white"/>
<path d="M201.047 28.3374C200.935 28.7386 200.88 32.292 200.935 36.2466L201.102 43.3534H205.276H209.451L209.618 35.4442L209.785 27.5923H205.555C202.605 27.5923 201.269 27.8216 201.047 28.3374Z" fill="white"/>
<path d="M225.98 35.4442L226.147 43.3534H230.321H234.495V35.6161V27.8789L230.154 27.707L225.813 27.535L225.98 35.4442Z" fill="white"/>
<path d="M265.105 32.292C264.549 33.7249 265.05 43.9266 265.662 43.8119C265.996 43.7546 266.33 42.723 266.497 41.5767C266.664 40.3732 267.053 39.3415 267.331 39.2269C267.665 39.1123 269.224 40.2012 270.838 41.6914C273.509 44.0985 274.9 44.557 274.789 42.8949C274.789 42.4937 273.509 41.1182 272.006 39.8L269.279 37.3929L271.506 35.5589C272.73 34.5272 273.732 33.381 273.732 32.9798C273.732 31.3177 272.507 31.7189 269.725 34.298L266.775 36.9917L266.608 34.7565C266.385 32.2347 265.606 30.9165 265.105 32.292Z" fill="white"/>
<path d="M282.636 32.0054C280.243 32.9797 279.297 34.6418 279.297 37.9659C279.297 40.9462 279.464 41.4047 281.022 42.7229C283.415 44.7862 286.087 44.7288 288.257 42.551C289.593 41.1181 289.871 40.3731 289.871 37.9659C289.871 35.8453 289.537 34.7564 288.647 33.6101C287.367 32.12 284.306 31.3176 282.636 32.0054ZM286.588 34.4698C287.422 34.9283 287.645 35.6734 287.645 37.794C287.645 41.0035 286.977 41.9205 284.584 41.9205C282.247 41.9205 281.523 41.0035 281.523 37.9086C281.523 36.4758 281.801 34.9856 282.191 34.5845C283.026 33.7248 285.141 33.6674 286.588 34.4698Z" fill="white"/>
<path d="M299.221 32.0628C298.721 32.292 297.552 33.4956 296.55 34.6992C294.992 36.7624 294.825 37.2783 294.992 40.4305C295.214 44.7289 296.16 45.0155 296.55 40.889C296.884 37.5075 299.166 33.8968 301.002 33.8968C302.004 33.8968 302.116 34.298 302.116 38.3099C302.116 43.0095 302.728 44.9582 303.785 43.8692C304.175 43.4681 304.342 41.1182 304.23 37.5648L304.063 31.8908L302.116 31.7762C301.058 31.7189 299.722 31.8335 299.221 32.0628Z" fill="white"/>
<path d="M314.304 31.9481C313.803 32.1201 312.579 33.381 311.632 34.7565C310.074 36.9917 309.852 37.6794 310.018 40.4878C310.241 44.4997 311.187 44.8436 311.577 41.0609C312.022 36.8197 314.248 33.5529 316.419 34.0114C317.254 34.1834 317.476 34.9284 317.699 38.9403C318.088 45.7032 319.09 44.9009 319.09 37.7368V31.8908L317.142 31.7762C316.085 31.7762 314.805 31.8335 314.304 31.9481Z" fill="white"/>
<path d="M326.771 32.7505C324.99 33.8394 324.935 34.0114 324.935 37.8513C324.935 41.5194 325.046 41.9205 326.437 43.0668C328.385 44.6716 334.563 44.5569 334.841 42.8949C335.008 42.0352 334.563 41.9205 331.669 41.9205C329.276 41.9205 328.107 41.634 327.383 40.8889C326.437 39.9719 326.604 39.9146 330.556 39.628C334.618 39.3415 334.674 39.3415 334.841 37.6794C335.175 35.043 334.507 33.3809 332.726 32.4639C330.556 31.3177 328.886 31.375 326.771 32.7505ZM332.281 34.8711C334.173 36.6478 333.561 37.3355 329.943 37.3355C326.382 37.3355 325.881 36.8197 327.55 34.9284C328.663 33.6675 330.945 33.6102 332.281 34.8711Z" fill="white"/>
<path d="M344.247 32.7505C342.132 34.4699 340.518 37.5075 340.518 39.8C340.518 41.0609 340.184 41.9206 339.683 42.1498C339.126 42.3218 338.848 43.2388 338.848 44.7862C338.848 46.7348 339.015 47.136 339.85 46.9641C340.351 46.8495 340.852 46.219 340.963 45.474C341.13 44.3277 341.464 44.2131 344.97 44.2131C348.476 44.2131 348.81 44.3277 348.977 45.474C349.089 46.219 349.59 46.8495 350.146 46.9641C350.925 47.136 351.092 46.7348 351.092 44.7862C351.092 43.2388 350.814 42.3218 350.257 42.1498C349.59 41.8632 349.423 40.717 349.423 37.049C349.423 33.2663 349.256 32.2347 348.532 31.9481C346.974 31.3177 345.694 31.6042 344.247 32.7505ZM347.196 37.9087V41.9206H344.97C342.8 41.9206 342.744 41.8632 342.744 39.8573C342.744 38.5391 343.245 37.1636 344.191 35.8454C346.473 32.7505 347.196 33.209 347.196 37.9087Z" fill="white"/>
<path d="M355.21 32.3492C355.044 32.8651 355.489 34.1259 356.379 35.2722L357.882 37.3355L356.101 40.2011C354.487 42.7802 354.264 44.213 355.544 44.213C355.823 44.213 356.824 43.0668 357.771 41.6339C359.83 38.5963 360.553 38.3671 360.553 40.8889C360.553 41.9205 360.776 43.1241 361.054 43.5826C361.889 44.9008 362.78 43.6972 362.78 41.2901C362.78 38.3098 363.781 38.4244 366.007 41.6339C367.009 43.1241 368.067 44.0984 368.345 43.9264C369.291 43.3533 368.957 42.2644 367.232 39.8572L365.618 37.5074L367.232 35.2149C368.122 33.954 368.735 32.7504 368.512 32.5212C367.733 31.7188 366.731 32.2919 365.34 34.4698C363.503 37.3355 362.78 37.3928 362.78 34.5844C362.78 33.3809 362.613 32.1773 362.39 32.0054C361.666 31.2603 360.553 32.9224 360.553 34.8137C360.553 37.1635 359.997 37.2781 358.772 35.1576C358.271 34.2979 357.325 33.0943 356.713 32.5212C355.711 31.5469 355.544 31.5469 355.21 32.3492Z" fill="white"/>
<path d="M98.0852 35.215C97.9183 35.6735 97.8626 37.6794 97.9739 39.6854L98.1409 43.3534H104.819H111.498V39.0549V34.7565L104.931 34.5845C99.7549 34.4699 98.3635 34.5845 98.0852 35.215Z" fill="white"/>
<path d="M171.55 35.2723C171.383 35.6735 171.327 37.6794 171.438 39.6854L171.605 43.3534H181.623H191.641L191.808 38.883L191.975 34.4699H181.901C173.943 34.4699 171.772 34.6418 171.55 35.2723Z" fill="white"/>
</svg>
