<svg xmlns="http://www.w3.org/2000/svg" width="50" height="50" viewBox="0 0 50 50" fill="none">
  <path d="M25 2.5C20.5499 2.5 16.1998 3.8196 12.4997 6.29193C8.79957 8.76427 5.91569 12.2783 4.21272 16.3896C2.50975 20.501 2.06417 25.025 2.93234 29.3895C3.80051 33.7541 5.94343 37.7632 9.09011 40.9099C12.2368 44.0566 16.2459 46.1995 20.6105 47.0677C24.9751 47.9358 29.499 47.4903 33.6104 45.7873C37.7217 44.0843 41.2357 41.2004 43.7081 37.5003C46.1804 33.8002 47.5 29.4501 47.5 25C47.5 19.0326 45.1295 13.3097 40.9099 9.0901C36.6903 4.87053 30.9674 2.5 25 2.5ZM25 43.5C21.9091 43.5068 18.8657 42.7391 16.1478 41.267C13.4299 39.7948 11.1243 37.6651 9.44139 35.0724C7.7585 32.4798 6.75205 29.5068 6.51397 26.425C6.27589 23.3432 6.81377 20.2509 8.07847 17.4305C9.34317 14.6102 11.2944 12.1516 13.7539 10.2795C16.2134 8.40734 19.1028 7.18128 22.1581 6.71331C25.2134 6.24533 28.3373 6.55035 31.2444 7.6005C34.1515 8.65065 36.7491 10.4125 38.8 12.725L22.5 28.975L14.2 20.725L10.7 24.275L22.5 36.025L41.525 16.95C42.7929 19.446 43.4687 22.2006 43.5 25C43.4934 29.9045 41.5422 34.6062 38.0742 38.0742C34.6062 41.5422 29.9045 43.4934 25 43.5Z" fill="white"/>
</svg>